<svg width="221" height="36" fill="none" xmlns="http://www.w3.org/2000/svg"><g clip-path="url(#a)"><mask id="b" style="mask-type:luminance" maskUnits="userSpaceOnUse" x="0" y="0" width="217" height="36"><path d="M216.5.91H0V35.09h216.5V.909z" fill="#fff"/></mask><g mask="url(#b)"><path d="M216.605 23.486v-1.949h-5.111V18.89h3.604v-1.838h-3.604v-2.133h4.927v-1.95h-7.06v10.518h7.244zm-17.578-.441a4.723 4.723 0 002.39.625c1.067 0 1.949-.294 2.648-.883.699-.588 1.03-1.323 1.03-2.28 0-.698-.221-1.287-.626-1.765-.404-.478-1.066-.92-1.985-1.324l-1.214-.515c-.478-.22-.772-.404-.956-.551-.184-.184-.258-.368-.258-.662 0-.331.111-.552.368-.736.258-.184.552-.257.919-.257.81 0 1.471.404 2.023 1.213l1.471-1.14c-.331-.625-.809-1.103-1.397-1.47-.589-.368-1.287-.552-2.06-.552-.993 0-1.839.294-2.5.809-.662.551-.993 1.25-.993 2.17 0 1.25.845 2.28 2.537 3.015l1.14.515c.515.257.883.441 1.067.625.183.184.257.405.257.699 0 .368-.147.662-.404.846-.258.22-.626.294-1.104.294-.993 0-1.839-.515-2.574-1.545l-1.471 1.104c.441.809.993 1.36 1.692 1.765zm-5.737.441V12.968h-2.133v10.518h2.133zm-10.886-4.34l-2.758-6.362h-.736l-2.758 6.4-2.353-6.216h-2.391l4.193 10.702h.698l2.942-6.583 2.942 6.583h.699l4.193-10.702h-2.391l-2.28 6.179zm-17.285 4.34v-8.569h3.384v-1.949h-8.9v1.95h3.347v8.568h2.169zm-17.358-1.397c1.104 1.066 2.428 1.581 3.972 1.581.993 0 1.912-.22 2.722-.699.809-.478 1.471-1.103 1.912-1.912l-1.618-1.14c-.736 1.177-1.765 1.765-3.016 1.765-.993 0-1.802-.33-2.427-.956-.662-.662-.956-1.471-.956-2.464 0-.993.331-1.839.956-2.5.662-.663 1.434-.994 2.427-.994 1.251 0 2.243.589 3.016 1.766l1.618-1.14c-.478-.81-1.103-1.472-1.912-1.913-.81-.478-1.729-.699-2.722-.699-1.544-.036-2.868.479-3.972 1.582-1.103 1.066-1.655 2.354-1.655 3.861 0 1.508.552 2.795 1.655 3.862zm-5.038 1.397v-1.949h-5.112V18.89h3.604v-1.838h-3.604v-2.133h4.928v-1.95h-7.061v10.518h7.245zm-14.195-4.229l-6.105-6.473h-.699v10.702h2.133v-6.288l6.068 6.509h.736V12.968h-2.133v6.289zm-13.718 0l-6.104-6.473h-.699v10.702h2.133v-6.288l6.068 6.509h.735V12.968h-2.133v6.289zm-14.195 1.471c-.662.662-1.434.956-2.39.956-.993 0-1.766-.33-2.428-.956-.625-.662-.956-1.471-.956-2.5 0-.994.331-1.84.956-2.502.626-.661 1.435-.956 2.428-.956.956 0 1.765.331 2.39.993.662.662.956 1.471.956 2.464 0 .993-.294 1.84-.956 2.501zm-6.362 1.36c1.103 1.067 2.427 1.619 3.935 1.582 1.508.037 2.832-.478 3.972-1.581 1.103-1.067 1.654-2.354 1.654-3.862.037-1.508-.514-2.795-1.654-3.861-1.104-1.067-2.428-1.618-3.972-1.582-1.508-.036-2.832.479-3.935 1.582-1.103 1.066-1.655 2.39-1.618 3.861-.037 1.508.514 2.795 1.618 3.862zm-13.791 0c1.103 1.067 2.427 1.582 3.972 1.582.993 0 1.912-.22 2.721-.699.81-.478 1.471-1.103 1.912-1.912l-1.618-1.14c-.735 1.177-1.765 1.765-3.015 1.765-.993 0-1.802-.33-2.427-.956-.662-.662-.957-1.471-.957-2.464 0-.993.331-1.839.957-2.5.661-.663 1.434-.994 2.427-.994 1.25 0 2.243.589 3.015 1.766l1.618-1.14c-.478-.81-1.103-1.472-1.912-1.913-.809-.478-1.728-.699-2.721-.699-1.545-.036-2.869.479-3.972 1.582-1.103 1.066-1.655 2.354-1.655 3.861.037 1.508.552 2.795 1.655 3.862zM48.136 11.057c-4.229-2.354-8.936-3.604-13.79-3.604-4.855 0-9.562 1.25-13.792 3.604a44.566 44.566 0 014.745 5.627 49.52 49.52 0 015.222 9.23l3.824-6.252 3.825 6.252c1.03-2.317 2.685-5.7 5.222-9.23a47.872 47.872 0 014.744-5.627zM67.37 4.289c-5.038.993-9.599 3.09-13.644 6.326-.92.735-1.802 1.47-2.648 2.317a37.983 37.983 0 00-4.817 5.626c-4.266 5.921-5.995 11.438-6.032 11.511-.184.625-.735 1.067-1.397 1.177h-.258a1.724 1.724 0 01-1.397-.736l-2.832-4.192-2.831 4.192a1.68 1.68 0 01-1.398.736h-.257a1.768 1.768 0 01-1.398-1.177c0-.037-1.765-5.59-6.031-11.51a43.513 43.513 0 00-4.854-5.664c-.184-.184-.405-.368-.589-.552-.662-.588-1.324-1.177-1.986-1.691-4.045-3.237-8.605-5.333-13.643-6.326C.438 4.142-.15 3.26.034 2.303A1.734 1.734 0 012.02.943c5.847 1.14 11.216 3.75 15.923 7.686 4.965-3.016 10.628-4.634 16.44-4.634 5.81 0 11.473 1.618 16.438 4.634C55.528 4.694 60.897 2.083 66.745.943c.919-.184 1.802.404 1.986 1.36.183.957-.442 1.802-1.361 1.986zM12.83 12.417C6.947 17.749 3.086 25.104 1.946 33.12c-.147.92.515 1.802 1.471 1.95.956.147 1.802-.515 1.95-1.471 1.029-7.209 4.522-13.828 9.818-18.646.331-.294.662-.551.956-.846a30.983 30.983 0 00-2.647-2.28c-.258.221-.442.405-.662.589zm53.95 20.704c.147.92-.514 1.802-1.47 1.95h-.258a1.705 1.705 0 01-1.692-1.471c-1.03-7.209-4.523-13.828-9.819-18.646-.33-.294-.662-.551-.956-.846a30.983 30.983 0 012.648-2.28l.662.552c5.884 5.37 9.745 12.724 10.885 20.741z" fill="#0D1025"/></g></g><defs><clipPath id="a"><path fill="#fff" d="M0 0H221V36H0z"/></clipPath></defs></svg>